<svg version="1.1" xmlns="http://www.w3.org/2000/svg" viewBox="0 0 75 143" preserveAspectRatio="xMidYMid meet" xmlns:xlink="http://www.w3.org/1999/xlink" xmlns:svgjs="http://svgjs.dev/svgjs">
<path d="M0 0 C24.75 0 49.5 0 75 0 C75 47.19 75 94.38 75 143 C50.25 143 25.5 143 0 143 C0 95.81 0 48.62 0 0 Z " fill="#FDFDFD" transform="translate(0,0)" class=""></path>
<path d="M0 0 C0.105 10.397 0.025 20.643 -1 31 C-3.31 31.33 -5.62 31.66 -8 32 C-8 26.06 -8 20.12 -8 14 C-10.166 14.165 -12.331 14.33 -14.562 14.5 C-22.384 15.057 -30.16 15.1 -38 15 C-37.928 16.053 -37.856 17.106 -37.781 18.191 C-37.152 27.814 -36.874 37.357 -37 47 C-36.129 46.856 -35.257 46.711 -34.359 46.562 C-26.496 45.337 -18.955 44.738 -11 45 C-11.66 48.3 -12.32 51.6 -13 55 C-20.59 55 -28.18 55 -36 55 C-35.752 57.784 -35.752 57.784 -35.5 60.625 C-34.861 67.817 -35 74.677 -35 82 C-19.655 81.505 -19.655 81.505 -4 81 C-3.67 76.38 -3.34 71.76 -3 67 C-2.505 65.02 -2.505 65.02 -2 63 C-0.02 63 1.96 63 4 63 C5.019 68.849 5.118 74.509 5.062 80.438 C5.058 81.36 5.053 82.282 5.049 83.232 C5.037 85.488 5.021 87.744 5 90 C2.155 91.592 -0.057 92.287 -3.303 92.502 C-4.566 92.592 -4.566 92.592 -5.854 92.684 C-6.758 92.739 -7.662 92.795 -8.594 92.852 C-10.008 92.947 -10.008 92.947 -11.45 93.045 C-13.447 93.178 -15.444 93.307 -17.441 93.433 C-20.462 93.623 -23.481 93.826 -26.5 94.031 C-36.007 94.663 -45.467 95.251 -55 95 C-55.616 89.808 -55.616 89.808 -55 87 C-53.335 85.318 -51.69 84.259 -49.629 83.105 C-47.668 82.015 -47.668 82.015 -47 79 C-45.984 63.855 -46.976 48.579 -48.438 33.5 C-48.539 32.452 -48.539 32.452 -48.642 31.382 C-49.416 23.124 -49.416 23.124 -51 15 C-53.97 15 -56.94 15 -60 15 C-60 11.7 -60 8.4 -60 5 C-56.631 3.514 -53.809 2.716 -50.137 2.498 C-49.199 2.438 -48.261 2.378 -47.295 2.316 C-46.293 2.261 -45.29 2.205 -44.258 2.148 C-43.216 2.085 -42.174 2.021 -41.101 1.955 C-38.901 1.822 -36.7 1.693 -34.5 1.567 C-31.144 1.376 -27.789 1.174 -24.434 0.969 C-22.292 0.84 -20.15 0.713 -18.008 0.586 C-17.01 0.527 -16.012 0.467 -14.983 0.406 C-9.979 0.122 -5.012 -0.065 0 0 Z " fill="#3B5272" transform="translate(65,25)"></path>
</svg>