
<!-- Generator: visioncortex VTracer 0.6.4 -->
<svg version="1.1" xmlns="http://www.w3.org/2000/svg" viewBox="0 0 500 143" preserveAspectRatio="xMidYMid meet">
<path d="M0 0 C165 0 330 0 500 0 C500 47.19 500 94.38 500 143 C335 143 170 143 0 143 C0 95.81 0 48.62 0 0 Z " fill="#FEFEFE" transform="translate(0,0)"/>
<path d="M0 0 C-0.509 10.349 -1.032 20.682 -2 31 C-4.31 31.33 -6.62 31.66 -9 32 C-9 26.06 -9 20.12 -9 14 C-11.166 14.165 -13.331 14.33 -15.562 14.5 C-23.437 15.1 -31.019 15 -39 15 C-38.67 25.56 -38.34 36.12 -38 47 C-33.05 46.34 -28.1 45.68 -23 45 C-19.295 44.928 -15.687 44.862 -12 45 C-12.144 46.279 -12.289 47.558 -12.438 48.875 C-12.519 49.594 -12.6 50.314 -12.684 51.055 C-13 53 -13 53 -14 55 C-21.59 55 -29.18 55 -37 55 C-36.67 63.91 -36.34 72.82 -36 82 C-33.113 81.835 -30.225 81.67 -27.25 81.5 C-19.827 81.093 -12.436 80.866 -5 81 C-4.909 79.554 -4.909 79.554 -4.816 78.078 C-4.733 76.815 -4.649 75.552 -4.562 74.25 C-4.481 72.997 -4.4 71.744 -4.316 70.453 C-4.075 67.817 -3.757 65.52 -3 63 C-1.02 63 0.96 63 3 63 C4.33 71.978 4.088 80.948 4 90 C-0.789 92.37 -5.57 92.642 -10.812 93.062 C-11.788 93.145 -12.763 93.227 -13.768 93.312 C-27.816 94.408 -41.917 94.671 -56 95 C-56.421 87.498 -56.421 87.498 -54.504 85.23 C-53.863 84.886 -53.223 84.542 -52.562 84.188 C-49.361 82.48 -49.361 82.48 -48 79 C-47.905 77.062 -47.869 75.12 -47.867 73.18 C-47.865 72.013 -47.863 70.846 -47.861 69.643 C-47.866 68.4 -47.87 67.156 -47.875 65.875 C-47.878 64.606 -47.882 63.338 -47.885 62.031 C-47.61 38.716 -47.61 38.716 -52 16 C-54.97 15.67 -57.94 15.34 -61 15 C-61 11.7 -61 8.4 -61 5 C-56.162 2.516 -51.379 2.596 -46.062 2.438 C-40.602 2.25 -35.393 1.908 -30 1 C-26.566 0.737 -23.128 0.586 -19.688 0.438 C-18.339 0.373 -18.339 0.373 -16.963 0.307 C-11.302 0.049 -5.666 -0.04 0 0 Z " fill="#3B5272" transform="translate(189,25)"/>
<path d="M0 0 C-0.66 19.14 -1.32 38.28 -2 58 C0.31 58 2.62 58 5 58 C5 59.98 5 61.96 5 64 C0.71 64 -3.58 64 -8 64 C-8.33 61.36 -8.66 58.72 -9 56 C-9.536 56.928 -10.072 57.856 -10.625 58.812 C-13.262 62.352 -14.871 63.543 -19 65 C-23.246 65.531 -25.409 65.296 -29.25 63.375 C-33.972 59.297 -35.652 54.393 -36.273 48.336 C-36.563 39.898 -35.086 33.39 -29.215 27.082 C-25.149 23.448 -22.047 21.857 -16.5 21.875 C-15.727 21.872 -14.953 21.87 -14.156 21.867 C-12 22 -12 22 -9 23 C-8.865 20.731 -8.768 18.459 -8.688 16.188 C-8.629 14.923 -8.571 13.658 -8.512 12.355 C-8.753 10.695 -8.753 10.695 -9 9 C-11.418 7.174 -11.418 7.174 -14 6 C-14.312 3.312 -14.312 3.312 -14 1 C-11 0 -11 0 0 0 Z " fill="#3D5373" transform="translate(234,43)"/>
<path d="M0 0 C2.31 0 4.62 0 7 0 C7.266 0.829 7.533 1.658 7.807 2.512 C10.201 9.962 12.603 17.408 15.015 24.852 C16.4 29.129 17.765 33.412 19.117 37.699 C19.724 39.591 20.33 41.483 20.938 43.375 C21.207 44.247 21.476 45.118 21.754 46.016 C22.412 48.043 23.194 50.028 24 52 C24.99 52.33 25.98 52.66 27 53 C27 54.98 27 56.96 27 59 C21.06 59 15.12 59 9 59 C9 57.02 9 55.04 9 53 C11.97 52.505 11.97 52.505 15 52 C14.783 51.397 14.567 50.793 14.344 50.172 C14.065 49.373 13.787 48.573 13.5 47.75 C13.222 46.961 12.943 46.172 12.656 45.359 C12 43 12 43 12 39 C1.605 39.495 1.605 39.495 -9 40 C-10.32 43.96 -11.64 47.92 -13 52 C-10.36 52.33 -7.72 52.66 -5 53 C-4.957 54.666 -4.959 56.334 -5 58 C-6 59 -6 59 -7.766 59.114 C-8.515 59.108 -9.264 59.103 -10.035 59.098 C-10.844 59.094 -11.653 59.091 -12.486 59.088 C-13.336 59.08 -14.187 59.071 -15.062 59.062 C-15.917 59.058 -16.771 59.053 -17.65 59.049 C-19.767 59.037 -21.883 59.019 -24 59 C-24 57.02 -24 55.04 -24 53 C-23.378 52.749 -22.757 52.498 -22.116 52.24 C-19.593 50.762 -19.163 49.863 -18.141 47.168 C-17.834 46.38 -17.526 45.591 -17.21 44.779 C-16.893 43.924 -16.576 43.069 -16.25 42.188 C-15.91 41.304 -15.57 40.421 -15.22 39.51 C-14.133 36.678 -13.066 33.84 -12 31 C-11.283 29.118 -10.564 27.236 -9.844 25.355 C-8.508 21.862 -7.18 18.366 -5.859 14.867 C-3.971 9.885 -1.995 4.94 0 0 Z " fill="#3E5474" transform="translate(311,48)"/>
<path d="M0 0 C0.799 0.018 1.598 0.036 2.422 0.055 C3.025 0.078 3.628 0.101 4.25 0.125 C4.234 1.465 4.234 1.465 4.218 2.831 C4.184 6.147 4.159 9.462 4.14 12.778 C4.13 14.212 4.116 15.647 4.099 17.081 C4.075 19.144 4.064 21.207 4.055 23.27 C4.039 25.131 4.039 25.131 4.023 27.031 C4.007 30.294 4.007 30.294 6.25 33.125 C12.013 33.907 12.013 33.907 16.992 31.207 C20.161 26.881 19.815 23.523 19.562 18.312 C19.54 17.429 19.517 16.545 19.494 15.635 C19.435 13.464 19.346 11.294 19.25 9.125 C17.6 8.465 15.95 7.805 14.25 7.125 C14.25 5.145 14.25 3.165 14.25 1.125 C18.476 -0.284 21.359 0.125 26.25 0.125 C26.25 11.675 26.25 23.225 26.25 35.125 C28.23 35.125 30.21 35.125 32.25 35.125 C32.25 37.105 32.25 39.085 32.25 41.125 C27.96 41.125 23.67 41.125 19.25 41.125 C18.92 39.145 18.59 37.165 18.25 35.125 C17.487 36.094 16.724 37.064 15.938 38.062 C13.983 40.546 13.393 41.077 10.25 42.125 C6.05 42.514 3.954 42.584 0.375 40.25 C-2.168 37.707 -2.718 36.915 -2.864 33.328 C-2.858 32.165 -2.853 31.002 -2.848 29.805 C-2.844 28.548 -2.841 27.291 -2.838 25.996 C-2.83 24.677 -2.821 23.359 -2.812 22 C-2.807 20.66 -2.803 19.32 -2.799 17.98 C-2.787 14.695 -2.771 11.41 -2.75 8.125 C-5.72 7.63 -5.72 7.63 -8.75 7.125 C-8.75 5.475 -8.75 3.825 -8.75 2.125 C-5.688 0.341 -3.529 -0.104 0 0 Z " fill="#415676" transform="translate(251.75,65.875)"/>
<path d="M0 0 C0.851 0.003 1.702 0.006 2.578 0.01 C3.468 0.018 4.357 0.027 5.273 0.035 C6.171 0.04 7.068 0.044 7.992 0.049 C10.211 0.061 12.43 0.077 14.648 0.098 C14.648 2.078 14.648 4.058 14.648 6.098 C12.338 6.758 10.028 7.418 7.648 8.098 C7.318 22.288 6.988 36.478 6.648 51.098 C8.958 51.098 11.268 51.098 13.648 51.098 C13.648 53.408 13.648 55.718 13.648 58.098 C6.718 58.098 -0.212 58.098 -7.352 58.098 C-7.352 56.118 -7.352 54.138 -7.352 52.098 C-4.712 51.768 -2.072 51.438 0.648 51.098 C0.648 36.908 0.648 22.718 0.648 8.098 C-1.662 7.768 -3.972 7.438 -6.352 7.098 C-6.352 5.118 -6.352 3.138 -6.352 1.098 C-4.003 -0.077 -2.614 -0.017 0 0 Z " fill="#395071" transform="translate(350.3515625,48.90234375)"/>
<path d="M0 0 C0.947 -0.005 1.895 -0.01 2.871 -0.016 C5.588 0.253 7.237 0.865 9.562 2.25 C9.671 4.793 9.75 7.331 9.812 9.875 C9.863 10.944 9.863 10.944 9.914 12.035 C10.01 17.254 8.967 20.083 5.562 24.25 C2.58 26.593 -0.72 26.728 -4.469 26.637 C-7.895 25.964 -9.413 23.949 -11.438 21.25 C-12.803 16.996 -13.004 12.668 -12.438 8.25 C-9.342 2.379 -6.666 -0.036 0 0 Z " fill="#FBFCFC" transform="translate(216.4375,73.75)"/>
<path d="M0 0 C0 11.55 0 23.1 0 35 C1.98 35 3.96 35 6 35 C6 36.98 6 38.96 6 41 C1.71 41 -2.58 41 -7 41 C-7 30.333 -7 19.667 -7 9 C-9.475 8.01 -9.475 8.01 -12 7 C-12 5.02 -12 3.04 -12 1 C-7.774 -0.409 -4.891 0 0 0 Z " fill="#3B5272" transform="translate(278,66)"/>
<path d="M0 0 C0.66 0 1.32 0 2 0 C3.007 2.935 4.005 5.873 5 8.812 C5.286 9.646 5.572 10.479 5.867 11.338 C6.138 12.14 6.409 12.943 6.688 13.77 C6.939 14.508 7.19 15.246 7.449 16.007 C8 18 8 18 8 21 C3.05 21 -1.9 21 -7 21 C-5.875 14.25 -5.875 14.25 -4.59 11.133 C-4.322 10.475 -4.055 9.818 -3.779 9.141 C-3.502 8.475 -3.224 7.81 -2.938 7.125 C-2.656 6.437 -2.374 5.748 -2.084 5.039 C-1.395 3.357 -0.698 1.678 0 0 Z " fill="#F0F1F4" transform="translate(312,60)"/>
</svg>